<?xml version="1.0" encoding="utf-8"?>
<svg version="1.1" id="Calque_1" xmlns="http://www.w3.org/2000/svg" xmlns:xlink="http://www.w3.org/1999/xlink" x="0px" y="0px"
	 viewBox="0 0 24 24" style="enable-background:new 0 0 24 24;" xml:space="preserve">
<style type="text/css">
	.st0{fill:#666666;}
</style>
<path class="st0" d="M14,4.3c-4,0-7.3,3.1-7.7,7.1H0v1.3h6.3c0.3,4,3.6,7.1,7.7,7.1c1.4,0,3.7-0.4,4.8-1h0v0v-1.4V6.7V5.3v0
	C17.6,4.7,15.3,4.3,14,4.3z M16.5,18c-0.8,0.3-1.6,0.5-2.5,0.5c-3.6,0-6.5-2.9-6.5-6.5c0-3.6,2.9-6.5,6.5-6.5c0.9,0,1.8,0.2,2.5,0.5
	V18z"/>
</svg>
